<svg xmlns="http://www.w3.org/2000/svg" width="1200" height="260" viewBox="0 0 1200 260" role="img" aria-labelledby="title description">
  <title id="title">robyroro</title>
  <desc id="description">Open-source tools, OSINT, and automation</desc>
  <defs>
    <linearGradient id="background" x1="0" y1="0" x2="1" y2="1">
      <stop offset="0" stop-color="#07111f" />
      <stop offset="0.5" stop-color="#10233c" />
      <stop offset="1" stop-color="#173b4f" />
    </linearGradient>
    <radialGradient id="glow" cx="0" cy="0" r="1" gradientTransform="translate(925 65) rotate(145) scale(430 260)" gradientUnits="userSpaceOnUse">
      <stop stop-color="#2dd4bf" stop-opacity="0.32" />
      <stop offset="1" stop-color="#2dd4bf" stop-opacity="0" />
    </radialGradient>
    <pattern id="grid" width="28" height="28" patternUnits="userSpaceOnUse">
      <path d="M 28 0 L 0 0 0 28" fill="none" stroke="#9bd7d0" stroke-opacity="0.08" stroke-width="1" />
    </pattern>
    <filter id="shadow" x="-20%" y="-20%" width="140%" height="140%">
      <feDropShadow dx="0" dy="6" stdDeviation="8" flood-color="#000814" flood-opacity="0.45" />
    </filter>
  </defs>

  <rect width="1200" height="260" rx="22" fill="url(#background)" />
  <rect width="1200" height="260" rx="22" fill="url(#glow)" />
  <rect width="1200" height="260" rx="22" fill="url(#grid)" />

  <g fill="none" stroke="#5eead4" stroke-opacity="0.55" stroke-width="2">
    <path d="M920 65h45l18 18h86" />
    <path d="M895 105h80l22 22h123" />
    <path d="M940 150h50l18 18h82" />
  </g>
  <g fill="#5eead4">
    <circle cx="920" cy="65" r="4" />
    <circle cx="895" cy="105" r="4" />
    <circle cx="940" cy="150" r="4" />
    <circle cx="1069" cy="83" r="4" />
    <circle cx="1120" cy="127" r="4" />
    <circle cx="1090" cy="168" r="4" />
  </g>

  <g filter="url(#shadow)">
    <text x="78" y="116" fill="#f8fafc" font-family="Segoe UI, Inter, Arial, sans-serif" font-size="64" font-weight="700" letter-spacing="1">robyroro</text>
    <text x="82" y="164" fill="#99f6e4" font-family="Segoe UI, Inter, Arial, sans-serif" font-size="23" font-weight="500" letter-spacing="3">OPEN-SOURCE TOOLS  •  OSINT  •  AUTOMATION</text>
  </g>

  <rect x="80" y="196" width="205" height="4" rx="2" fill="#2dd4bf" />
  <rect x="293" y="196" width="72" height="4" rx="2" fill="#38bdf8" opacity="0.8" />
</svg>
